/vscmnt/brussel_pixiu_data/_data_brussel/112/vsc11236/PredSimResults/SUBJ07opt3D/weighted-LRposFixed/expIG/worker_01.mot
version=1
nRows=9
nColumns=50
inDegrees=yes
endheader
                time	         pelvis_tilt	         pelvis_list	     pelvis_rotation	           pelvis_tx	           pelvis_ty	           pelvis_tz	       hip_flexion_r	     hip_adduction_r	      hip_rotation_r	        knee_angle_r	       ankle_angle_r	         mtp_angle_r	       hip_flexion_l	     hip_adduction_l	      hip_rotation_l	        knee_angle_l	       ankle_angle_l	         mtp_angle_l	    lumbar_extension	      lumbar_bending	     lumbar_rotation	 ercspn_r/activation	 intobl_r/activation	 extobl_r/activation	    abd_r/activation	    add_r/activation	hamstrings_r/activation	bifemsh_r/activation	glut_max_r/activation	iliopsoas_r/activation	rect_fem_r/activation	  vasti_r/activation	gastroc_r/activation	 soleus_r/activation	tib_ant_r/activation	 ercspn_l/activation	 intobl_l/activation	 extobl_l/activation	    abd_l/activation	    add_l/activation	hamstrings_l/activation	bifemsh_l/activation	glut_max_l/activation	iliopsoas_l/activation	rect_fem_l/activation	  vasti_l/activation	gastroc_l/activation	 soleus_l/activation	tib_ant_l/activation	
          1.07929284	         -4.15220712	         -0.31358908	          8.69374951	          1.37070191	          0.84749750	         -0.01268522	         30.55916205	         -2.35287442	         -5.13346453	         -7.45795865	          2.62596775	          0.27769117	        -15.11610951	         -0.31825527	          4.32225706	         -8.74279128	          7.57127782	         29.01780112	        -11.49016305	         -1.25178480	         -1.64277929	          0.12178982	          0.13226355	          0.00999999	          0.01205774	          0.16224376	          0.08553782	          0.11194353	          0.09641810	          0.04003504	          0.00999999	          0.00999999	          0.00999999	          0.00999999	          0.41550007	          0.11718562	          0.00999999	          0.00999999	          0.03183244	          0.03852686	          0.01846025	          0.15539641	          0.01938001	          0.30959128	          0.01179881	          0.01179881	          0.15112115	          0.30485663	          0.01739318	
          1.09008577	         -4.14810155	         -0.28430064	          8.74008635	          1.38684726	          0.84587670	         -0.01233352	         30.42533017	         -2.14708411	         -4.78224586	         -9.14776827	          2.26166721	          0.25661199	        -15.58518054	         -0.41918140	          4.00487355	         -9.83025621	          6.59650864	         30.58194677	        -11.36221936	         -0.87697551	         -1.82907065	          0.10322202	          0.12723992	          0.00999999	          0.01021945	          0.14099736	          0.07708977	          0.11963123	          0.15036976	          0.03393139	          0.00999999	          0.00999999	          0.01392121	          0.01179881	          0.46018235	          0.13657560	          0.00999999	          0.00999999	          0.02697934	          0.05888441	          0.01564584	          0.13170503	          0.01642538	          0.26239170	          0.00999999	          0.00999999	          0.12808157	          0.28500707	          0.01474145	
          1.10087870	         -4.13848661	         -0.24558178	          8.73397920	          1.40311051	          0.84446742	         -0.01190710	         30.18303443	         -1.98854050	         -4.43472176	        -10.68219612	          1.82270745	          0.24896523	        -15.86480065	         -0.48978807	          3.63747306	        -11.27863799	          5.52807228	         32.08469592	        -11.23637161	         -0.50961175	         -2.00442374	          0.13557535	          0.10784121	          0.00999999	          0.09574898	          0.15817871	          0.06869223	          0.10743917	          0.15117824	          0.02875829	          0.00999999	          0.00999999	          0.01179881	          0.00999999	          0.53841124	          0.15664622	          0.00999999	          0.00999999	          0.02286613	          0.04990702	          0.01326052	          0.11162558	          0.01392120	          0.22238806	          0.00999999	          0.00999999	          0.10855454	          0.26257077	          0.01249400	
          1.11167163	         -4.12474019	         -0.18625024	          8.67851260	          1.41931110	          0.84342204	         -0.01138811	         29.91790414	         -1.84715895	         -4.15265266	        -12.16074733	          1.35792312	          0.22771195	        -15.89313469	         -0.52028208	          3.23352779	        -13.16236913	          4.33203109	         33.46026763	        -11.13128886	         -0.16356258	         -2.16769583	          0.15160799	          0.09139998	          0.00999999	          0.14914130	          0.17812913	          0.05879221	          0.09105924	          0.18236381	          0.02437387	          0.00999999	          0.00999999	          0.00999999	          0.00999999	          0.56589661	          0.19424170	          0.00999999	          0.00999999	          0.01938001	          0.05382360	          0.01360249	          0.09460740	          0.01179881	          0.18848329	          0.00999999	          0.00999999	          0.09200456	          0.22893889	          0.01058920	
          1.12246456	         -4.10702959	         -0.11438509	          8.57876894	          1.43529895	          0.84288517	         -0.01078871	         29.70335944	         -1.71511012	         -3.92120485	        -13.75710215	          1.16546378	          0.20431019	        -15.60977623	         -0.51993701	          2.80038949	        -15.55897921	          3.01800612	         34.54378678	        -11.05597860	          0.16985170	         -2.31614393	          0.16012073	          0.07746535	          0.00999999	          0.19219856	          0.20171431	          0.05037836	          0.07717656	          0.20887597	          0.02065788	          0.00999999	          0.02445820	          0.00999999	          0.00999999	          0.55785541	          0.23716514	          0.00999999	          0.00999999	          0.01642538	          0.07214981	          0.01475512	          0.08018377	          0.00999999	          0.15974755	          0.00999999	          0.00999999	          0.07797776	          0.19403539	          0.00999999	
          1.13325749	         -4.08648697	         -0.03452860	          8.43603327	          1.45095685	          0.84299469	         -0.01012230	         29.54670978	         -1.59037469	         -3.73961865	        -15.47183285	          1.31100654	          0.18217096	        -14.95727702	         -0.49450305	          2.33648473	        -18.53943523	          1.59620614	         35.10678903	        -11.01488947	          0.49322942	         -2.44688560	          0.17116180	          0.06565516	          0.00999999	          0.21243140	          0.22519824	          0.04616844	          0.06541040	          0.22066391	          0.01750843	          0.00999999	          0.05028472	          0.00999999	          0.00999999	          0.52235579	          0.26366426	          0.00999999	          0.00999999	          0.01392120	          0.10457145	          0.01575411	          0.06795914	          0.00999999	          0.13539281	          0.00999999	          0.00999999	          0.06608945	          0.16445320	          0.00999999	
          1.14405041	         -4.06426460	          0.05350314	          8.25140661	          1.46627631	          0.84378571	         -0.00940968	         29.37538570	         -1.46788698	         -3.59132483	        -17.16267894	          1.77299127	          0.17381214	        -13.91131215	         -0.44884564	          1.85026475	        -22.11509744	          0.00767033	         35.00939668	        -10.99934429	          0.80446728	         -2.55734405	          0.16515680	          0.05564552	          0.00999999	          0.21767539	          0.23653572	          0.04384331	          0.05543808	          0.22012052	          0.01483913	          0.00999999	          0.07689965	          0.00999999	          0.00999999	          0.44420218	          0.27789293	          0.00999999	          0.00999999	          0.01179881	          0.13160424	          0.01586517	          0.05759824	          0.00999999	          0.11475113	          0.00999999	          0.00999999	          0.05601360	          0.13938104	          0.00999999	
          1.15484334	         -4.04234620	          0.14766711	          8.02627480	          1.48127789	          0.84521095	         -0.00866113	         29.10148142	         -1.33689552	         -3.44267118	        -18.65659082	          2.48824960	          0.21301950	        -12.47936489	         -0.39206081	          1.37067368	        -26.20549595	         -1.90842748	         34.26286193	        -10.99965999	          1.10210136	         -2.64671754	          0.13997737	          0.04716193	          0.00999999	          0.21407757	          0.23484979	          0.04789992	          0.04698611	          0.19927210	          0.01257679	          0.00999999	          0.11222467	          0.00999999	          0.00999999	          0.37648013	          0.28326326	          0.00999999	          0.00999999	          0.00999999	          0.14855765	          0.01344640	          0.05051944	          0.00999999	          0.09725643	          0.00999999	          0.00999999	          0.04747389	          0.11813132	          0.00999999	
          1.16563627	         -4.02349813	          0.24500105	          7.76131679	          1.49596283	          0.84718382	         -0.00787447	         28.65633077	         -1.18551051	         -3.25546121	        -19.79933776	          3.29817017	          0.31926184	        -10.69451324	         -0.32903613	          0.93962969	        -30.67200613	         -4.24955513	         32.80664175	        -11.01276123	          1.38378164	         -2.71585398	          0.11863674	          0.03997173	          0.00999999	          0.21307271	          0.21969867	          0.05803752	          0.03982272	          0.16889153	          0.01065936	          0.00999999	          0.13432873	          0.00999999	          0.00999999	          0.31908283	          0.27447672	          0.00999999	          0.00999999	          0.00999999	          0.15308454	          0.01139640	          0.04281736	          0.00999999	          0.08242894	          0.00999999	          0.00999999	          0.04023613	          0.10012129	          0.02467142	
